<svg width="52" height="26" viewBox="0 0 52 26" fill="none" xmlns="http://www.w3.org/2000/svg">
<path d="M43.6271 0C43.0763 0.797371 42.4703 1.59474 41.6992 2.2782C37.8983 5.86637 32.7754 7.11939 30.3517 4.38554C29.8008 3.75904 29.4153 1.6517 29.1949 0.512596C29.1398 0.170865 28.7542 0.0569549 28.4788 0.22782C27.7076 0.740416 26.8814 1.02519 26 1.02519C25.1186 1.02519 24.2924 0.740416 23.5212 0.22782C23.2458 0.0569549 22.8602 0.170865 22.8051 0.512596C22.5847 1.6517 22.2542 3.70208 21.6483 4.38554C19.1695 7.17634 14.1017 5.92333 10.3008 2.2782C9.52966 1.53779 8.92373 0.797371 8.37288 0C3.19492 3.07558 0 7.51807 0 12.4162C0 17.77 3.85593 22.4973 9.80509 25.5728C10.3008 22.6681 12.1737 20.5038 14.322 20.5038C15.8644 20.5038 17.2966 21.6429 18.1229 23.3516C19.3347 21.9277 20.6568 21.1303 21.9788 21.3582C23.5763 21.586 24.8432 23.1807 25.5593 25.5728C25.7246 26.1424 26.5508 26.1424 26.7161 25.5728C27.4322 23.2377 28.6992 21.6429 30.2966 21.3582C31.5636 21.1873 32.8305 21.8138 33.9873 23.1238C34.8686 21.529 36.1907 20.5038 37.678 20.5038C39.8814 20.5038 41.6992 22.6681 42.1949 25.5728C48.1992 22.4973 52 17.713 52 12.4162C52 7.51807 48.8051 3.07558 43.6271 0Z" fill="#FEF200"/>
</svg>
